# xmcd CD database file
#
# Track frame offsets:
#	150
#	14250
#	25800
#	40725
#	53250
#	78450
#	97425
#	109200
#	130575
#	146775
#	160275
#	176850
#	202875
#	219600
#	244500
#	259575
#	277350
#
# Disc length: 3860 seconds
#
# Revision: 0
# Processed by: cddbd v1.5.2PL0 Copyright (c) Steve Scherf et al.
# Submitted via: CDex 1.51
#
DISCID=f30f1211
DTITLE=Rick Estrin - On The Harp Side
DYEAR=1900
DGENRE=Blues
TTITLE0=Headin' Out
TTITLE1=Tell Me Mama
TTITLE2=Fattening Frogs Fro Snakes
TTITLE3=Tell Me Baby
TTITLE4=Blues For Doe
TTITLE5=Porn Bred
TTITLE6=Gangster Blues
TTITLE7=Don't Lose Your Eye
TTITLE8=Big And Fat
TTITLE9=Harlem Nocturne
TTITLE10=Too Young To Know
TTITLE11=Gettin' Out Of Town
TTITLE12=The Lottery Blues
TTITLE13=The Scissorbill
TTITLE14=Keep It To Yourself
TTITLE15=Murmur Low
TTITLE16=Dog On Dog
EXTD=
EXTT0=
EXTT1=
EXTT2=
EXTT3=
EXTT4=
EXTT5=
EXTT6=
EXTT7=
EXTT8=
EXTT9=
EXTT10=
EXTT11=
EXTT12=
EXTT13=
EXTT14=
EXTT15=
EXTT16=
PLAYORDER=
